<?xml version="1.0" standalone="no"?>
<!DOCTYPE svg PUBLIC "-//W3C//DTD SVG 20010904//EN"
 "http://www.w3.org/TR/2001/REC-SVG-20010904/DTD/svg10.dtd">
<svg version="1.0" xmlns="http://www.w3.org/2000/svg"
 width="50px" height="50px" viewBox="0 0 512.000000 512.000000"
 preserveAspectRatio="xMidYMid meet">
<metadata>
Created by potrace 1.16, written by Peter Selinger 2001-2019
</metadata>
<g transform="translate(0.000000,512.000000) scale(0.100000,-0.100000)"
fill="#000000" stroke="none">
<path d="M752 4953 c-7 -3 -48 -75 -91 -162 l-79 -156 -173 -34 c-96 -19 -186
-38 -202 -44 -34 -11 -47 -34 -47 -83 0 -34 10 -47 112 -151 l112 -113 -32
-133 c-18 -72 -32 -147 -32 -164 0 -64 54 -88 140 -62 36 11 43 9 104 -25 36
-20 66 -43 66 -49 0 -7 -7 -23 -16 -36 -19 -27 -28 -18 119 -115 65 -43 164
-114 220 -158 131 -104 345 -320 422 -426 64 -89 157 -246 174 -293 l10 -29
-73 0 -73 0 -65 88 c-36 48 -77 97 -90 110 l-24 22 -62 -56 -62 -55 50 -62
c50 -61 50 -62 50 -134 l0 -73 1435 0 1435 0 0 -175 c0 -369 -50 -603 -195
-914 -69 -149 -114 -270 -145 -391 -11 -43 -20 -80 -20 -83 0 -8 141 -39 154
-34 7 3 18 31 25 63 22 95 78 247 146 393 155 334 195 531 195 979 l0 284 -24
21 -23 21 48 70 c56 84 102 174 129 250 l19 56 -42 10 c-23 6 -58 15 -77 21
-19 5 -38 9 -41 9 -4 0 -17 -27 -29 -61 -27 -72 -110 -207 -182 -296 l-51 -63
-79 0 -78 0 50 74 c88 129 176 334 211 492 10 45 10 57 0 64 -14 8 -141 23
-147 17 -2 -2 -15 -43 -29 -93 -59 -204 -142 -363 -253 -484 l-64 -70 -144 0
-144 0 0 38 c1 52 33 192 65 282 54 149 146 312 250 441 l54 66 -58 57 c-31
31 -59 56 -62 56 -10 0 -118 -139 -172 -220 -131 -203 -223 -447 -242 -647
l-8 -73 -108 0 c-60 0 -109 2 -109 4 0 2 25 44 56 92 119 189 212 421 259 650
46 222 57 544 19 544 -9 0 -45 -5 -82 -11 l-67 -11 -1 -147 c-2 -374 -127
-752 -347 -1046 l-52 -70 -138 -3 -138 -3 24 39 c71 111 130 261 164 414 26
117 25 473 0 603 -25 124 -38 167 -52 161 -6 -2 -39 -12 -73 -21 -35 -10 -64
-21 -67 -25 -2 -4 6 -51 17 -106 18 -83 22 -133 22 -304 1 -229 -11 -311 -66
-455 -35 -90 -30 -94 -78 60 -30 97 -31 107 -34 305 -3 223 -20 335 -72 482
-28 78 -108 243 -121 251 -5 3 -33 -10 -63 -29 -30 -20 -61 -39 -69 -43 -11
-7 -5 -27 32 -102 45 -94 88 -218 101 -294 6 -34 -2 -24 -55 70 -111 199 -297
469 -427 623 l-45 53 -29 -28 -29 -28 -29 35 c-24 29 -28 41 -23 72 9 57 -3
88 -40 102 -18 7 -110 28 -206 47 l-173 34 -79 156 c-43 86 -85 159 -94 163
-19 7 -74 7 -93 -1z m98 -354 c25 -51 54 -97 65 -104 11 -7 70 -23 130 -35 61
-12 118 -24 128 -27 15 -4 5 -19 -57 -83 -86 -88 -87 -91 -56 -210 10 -41 18
-76 16 -78 -2 -1 -60 20 -130 48 -69 27 -135 50 -146 50 -11 0 -77 -23 -146
-50 -70 -28 -128 -49 -130 -48 -2 2 6 37 16 78 31 119 30 122 -56 210 -62 64
-72 79 -57 83 10 3 68 15 128 27 61 12 119 28 130 35 11 7 40 53 65 104 24 50
47 91 50 91 3 0 26 -41 50 -91z"/>
<path d="M1120 4880 l0 -80 80 0 80 0 0 80 0 80 -80 0 -80 0 0 -80z"/>
<path d="M2567 4940 c-32 -10 -61 -21 -64 -23 -2 -3 3 -19 12 -37 14 -26 14
-34 3 -48 -11 -15 -11 -15 3 -5 14 11 19 7 34 -27 10 -22 19 -40 20 -40 2 0
20 7 41 16 55 23 184 15 242 -15 82 -42 152 -131 167 -213 6 -30 4 -37 -12
-41 -126 -36 -584 -139 -590 -133 -4 4 -8 51 -8 104 0 91 2 101 32 153 l32 56
-66 53 -67 53 -15 -22 c-9 -12 -28 -43 -42 -69 -20 -36 -33 -48 -60 -55 -159
-39 -189 -50 -230 -85 -56 -48 -79 -100 -79 -183 0 -94 36 -162 108 -205 72
-43 114 -48 223 -24 l91 20 50 -45 c60 -54 150 -100 226 -116 77 -16 203 -6
274 21 120 45 241 166 284 284 19 54 25 61 55 69 146 35 204 72 240 152 22 48
25 151 5 199 -20 48 -75 107 -121 127 -51 23 -145 23 -240 0 l-70 -17 -48 34
c-78 56 -166 82 -277 81 -64 0 -114 -6 -153 -19z m733 -250 c23 -23 26 -68 7
-93 -6 -10 -33 -24 -58 -31 l-46 -14 -19 61 c-10 34 -20 67 -22 74 -3 13 22
20 81 22 25 1 43 -5 57 -19z m-1057 -277 c3 -32 8 -65 11 -74 5 -12 -4 -18
-43 -27 -75 -17 -121 7 -121 63 0 43 18 63 70 80 75 23 77 22 83 -42z m715
-135 c-19 -23 -59 -55 -89 -72 -50 -29 -61 -31 -149 -31 -78 0 -102 4 -134 21
l-40 21 205 51 c112 28 212 51 223 51 15 1 13 -6 -16 -41z"/>
<path d="M3670 4902 c0 -33 -7 -81 -15 -107 -8 -27 -13 -50 -12 -51 9 -6 145
-54 154 -54 16 0 43 127 43 204 l0 66 -85 0 -85 0 0 -58z"/>
<path d="M4557 4944 c-64 -15 -155 -58 -219 -102 -62 -42 -134 -123 -212 -234
-37 -54 -72 -100 -77 -104 -6 -3 -81 5 -168 17 -120 18 -165 21 -182 12 -14
-6 -90 -104 -173 -223 -123 -175 -150 -219 -150 -248 0 -40 40 -82 79 -82 13
0 77 20 142 45 l117 46 68 -46 67 -46 -87 -76 c-94 -81 -116 -118 -100 -165 7
-20 67 -68 224 -178 282 -198 288 -199 359 -14 20 54 41 103 45 108 5 4 37
-12 73 -38 l64 -46 -5 -134 -5 -135 31 -30 c35 -36 69 -39 104 -11 14 11 90
111 169 222 119 170 143 209 142 238 0 24 -23 76 -71 165 -40 72 -72 135 -72
142 0 6 34 60 76 120 128 181 165 280 166 448 0 145 -48 310 -103 349 -30 21
-216 21 -302 0z m-687 -594 c30 -6 55 -12 58 -15 9 -9 -90 -135 -101 -129 -7
4 -23 15 -37 25 -14 10 -40 19 -58 21 l-32 3 35 53 c39 57 45 59 135 42z m205
-531 l73 -51 -27 -65 c-14 -36 -29 -66 -33 -66 -4 -1 -52 30 -107 68 l-101 70
53 47 c28 26 56 47 60 48 5 0 41 -23 82 -51z m568 -147 l-37 -54 -14 29 c-7
16 -29 39 -48 52 -19 13 -34 28 -34 33 0 5 21 39 46 75 l47 65 38 -73 39 -73
-37 -54z"/>
<path d="M1648 4811 c-31 -20 -60 -39 -63 -43 -4 -4 102 -205 131 -246 1 -2
36 14 77 34 l75 38 -25 50 c-46 93 -117 206 -127 205 -6 0 -37 -17 -68 -38z"/>
<path d="M2720 4640 l0 -80 80 0 80 0 0 80 0 80 -80 0 -80 0 0 -80z"/>
<path d="M2825 3890 c-16 -4 -41 -10 -55 -14 l-25 -5 0 -183 c0 -101 -4 -211
-8 -244 l-8 -62 64 -11 c85 -15 95 -14 101 7 24 81 32 449 10 505 -7 18 -30
20 -79 7z"/>
<path d="M3360 3760 l0 -80 80 0 80 0 0 80 0 80 -80 0 -80 0 0 -80z"/>
<path d="M235 3444 c-9 -42 -13 -80 -8 -84 4 -4 34 -15 66 -24 72 -21 255 -98
323 -137 28 -16 56 -29 61 -29 10 0 83 123 83 140 0 27 -430 210 -493 210 -11
0 -20 -23 -32 -76z"/>
<path d="M3676 3378 c-43 -67 -217 -362 -219 -370 -3 -16 124 -91 135 -80 5 5
61 95 123 198 129 214 126 190 25 247 l-49 28 -15 -23z"/>
<path d="M4730 3121 c-72 -23 -172 -76 -201 -107 l-23 -24 59 -60 58 -59 41
29 c65 44 115 62 191 69 l70 6 11 83 10 82 -80 -1 c-49 0 -103 -7 -136 -18z"/>
<path d="M420 3100 c-18 -18 -20 -33 -20 -177 l0 -157 -120 -121 c-113 -114
-120 -124 -120 -161 0 -22 6 -48 13 -58 8 -11 64 -33 142 -56 l129 -37 63
-154 c35 -85 71 -160 80 -167 20 -14 77 -16 101 -3 9 5 51 77 92 160 l74 151
189 0 c186 0 188 0 212 25 49 48 38 72 -95 213 l-120 127 0 198 c0 184 -1 198
-20 217 -38 38 -84 27 -192 -45 -54 -36 -102 -65 -108 -65 -6 0 -54 29 -108
65 -108 72 -154 83 -192 45z m300 -300 c14 0 56 20 93 45 l67 45 0 -141 0
-141 62 -64 61 -64 -114 0 c-81 0 -120 -4 -134 -14 -11 -7 -38 -50 -60 -95
-21 -44 -42 -81 -45 -81 -4 0 -19 33 -35 73 -15 39 -36 81 -47 93 -10 12 -53
31 -95 43 l-75 22 81 83 81 84 0 101 0 101 67 -45 c37 -25 79 -45 93 -45z"/>
<path d="M4640 2400 l0 -80 -80 0 -80 0 0 -80 0 -80 80 0 80 0 0 -80 0 -80 80
0 80 0 0 80 0 80 80 0 80 0 0 80 0 80 -80 0 -80 0 0 80 0 80 -80 0 -80 0 0
-80z"/>
<path d="M2960 2320 l0 -80 80 0 80 0 0 80 0 80 -80 0 -80 0 0 -80z"/>
<path d="M3758 2248 c-2 -40 -1 -76 2 -80 3 -3 39 -8 80 -10 l75 -3 3 83 3 82
-80 0 -79 0 -4 -72z"/>
<path d="M1040 2065 l0 -145 -115 0 c-91 0 -125 -4 -170 -21 -207 -77 -264
-369 -105 -529 71 -71 131 -90 275 -90 l115 0 0 -168 c0 -125 4 -182 16 -223
43 -145 148 -277 272 -342 116 -61 152 -67 384 -67 l208 0 0 -140 c0 -127 2
-142 20 -160 20 -20 33 -20 940 -20 879 0 921 1 938 18 17 17 19 46 26 303 3
156 9 296 12 310 7 31 -7 36 -106 41 l-55 3 -7 -50 c-3 -27 -7 -143 -7 -257
l-1 -208 -800 0 -800 0 0 80 0 80 280 0 280 0 0 80 0 79 -562 3 c-563 3 -563
3 -621 26 -141 57 -243 193 -250 332 l-2 42 73 18 c89 23 147 48 209 91 60 41
163 138 163 153 0 14 -92 106 -106 106 -5 0 -30 -21 -54 -46 -58 -58 -130
-106 -203 -133 -89 -33 -87 -34 -87 69 0 83 -2 93 -25 115 -23 24 -28 25 -172
25 -134 0 -153 2 -193 23 -34 16 -51 34 -69 70 -33 67 -24 124 28 176 47 47
68 51 243 51 134 0 140 1 163 25 25 24 25 25 25 225 l0 200 -80 0 -80 0 0
-145z"/>
<path d="M3734 2013 c-24 -110 -61 -230 -96 -307 -111 -253 -138 -318 -138
-331 0 -7 23 -22 53 -33 96 -36 92 -36 106 5 8 21 40 97 73 168 90 196 125
299 163 481 4 19 -2 22 -65 33 -91 15 -89 15 -96 -16z"/>
<path d="M2640 1840 l0 -80 80 0 80 0 0 80 0 80 -80 0 -80 0 0 -80z"/>
<path d="M4320 1600 l0 -80 80 0 80 0 0 80 0 80 -80 0 -80 0 0 -80z"/>
<path d="M160 1520 l0 -80 80 0 80 0 0 80 0 80 -80 0 -80 0 0 -80z"/>
<path d="M4560 1280 l0 -80 80 0 80 0 0 80 0 80 -80 0 -80 0 0 -80z"/>
<path d="M480 1120 l0 -80 -80 0 -80 0 0 -80 0 -80 80 0 80 0 0 -80 0 -80 80
0 80 0 0 80 0 80 80 0 80 0 0 80 0 80 -80 0 -80 0 0 80 0 80 -80 0 -80 0 0
-80z"/>
</g>
</svg>
